<svg width="29" height="29" viewBox="0 0 29 29" fill="none" xmlns="http://www.w3.org/2000/svg">
<path d="M14.5 28.25C12.5979 28.25 10.8104 27.8891 9.1375 27.1672C7.46458 26.4453 6.00938 25.4656 4.77187 24.2281C3.53437 22.9906 2.55469 21.5354 1.83281 19.8625C1.11094 18.1896 0.75 16.4021 0.75 14.5C0.75 12.5979 1.11094 10.8104 1.83281 9.1375C2.55469 7.46458 3.53437 6.00938 4.77187 4.77187C6.00938 3.53437 7.46458 2.55469 9.1375 1.83281C10.8104 1.11094 12.5979 0.75 14.5 0.75C16.4021 0.75 18.1896 1.11094 19.8625 1.83281C21.5354 2.55469 22.9906 3.53437 24.2281 4.77187C25.4656 6.00938 26.4453 7.46458 27.1672 9.1375C27.8891 10.8104 28.25 12.5979 28.25 14.5C28.25 16.4021 27.8891 18.1896 27.1672 19.8625C26.4453 21.5354 25.4656 22.9906 24.2281 24.2281C22.9906 25.4656 21.5354 26.4453 19.8625 27.1672C18.1896 27.8891 16.4021 28.25 14.5 28.25ZM15.875 25.3969C18.6021 25.0531 20.888 23.8557 22.7328 21.8047C24.5776 19.7536 25.5 17.3188 25.5 14.5C25.5 11.6812 24.5776 9.24635 22.7328 7.19531C20.888 5.14427 18.6021 3.94688 15.875 3.60313V25.3969Z" fill="none"/>
</svg>
