<svg width="84" height="36" viewBox="0 0 84 36" fill="none" xmlns="http://www.w3.org/2000/svg">
<g clip-path="url(#clip0_18_411)">
<path d="M73.9112 17.0815L73.8741 17.1187C74.1343 16.4125 74.6546 16.1523 75.1006 16.1523C75.7325 16.1523 76.29 16.6355 76.29 17.3417C76.29 17.4904 76.29 17.6762 76.2157 17.8992C74.9148 21.2444 72.1643 22.9541 69.4882 23.2143C68.2617 25.2957 66.2546 26.8196 63.3926 26.8196C59.3041 26.8196 57.4829 23.586 57.4829 20.055C57.4829 15.7063 60.2334 10.8744 64.8422 10.8744C65.8457 10.8744 66.7006 11.0975 67.4068 11.3948C69.4882 12.1753 70.8263 14.8886 70.8263 17.7877C70.8263 18.7169 70.7519 19.6461 70.5289 20.5382C71.9042 20.055 73.205 18.9399 73.9112 17.0815ZM66.1431 13.9222V13.8851C65.3254 13.8851 64.8422 14.9629 64.8422 16.2638C64.8422 18.1594 65.8829 19.9063 67.5183 20.5382C67.7785 19.7205 67.89 18.7913 67.89 17.7134C67.89 15.632 67.2581 13.9222 66.1431 13.9222ZM63.4298 24.1063C64.4705 24.1063 65.5112 23.6603 66.3289 22.7311C63.913 21.6532 62.3891 19.1258 62.3891 16.7098C62.3891 15.8921 62.5378 15.0373 62.7608 14.2939C61.2741 15.5205 60.4192 17.9364 60.4192 20.055C60.4192 22.8054 61.7201 24.1063 63.4298 24.1063Z" fill="black"/>
<path d="M58.0568 17.0815L58.0196 17.1187C58.2798 16.4125 58.7258 16.1152 59.1718 16.1152C59.8037 16.1152 60.4355 16.6727 60.4355 17.3789C60.4355 17.5647 60.3984 17.7134 60.324 17.8992C58.8745 21.4302 56.7187 25.5559 53.2621 27.9718L53.1878 28.7152C52.7789 33.1754 50.5117 36.0001 47.6497 36.0001C45.4939 36.0001 44.2302 34.5134 44.2302 32.7665C44.2302 29.6072 47.4638 28.455 50.4745 26.5223C50.5488 25.7417 50.586 24.8497 50.6231 23.8461C49.1364 25.4815 47.5382 26.1506 46.1258 26.1506C43.301 26.1506 40.9966 23.8461 40.9966 20.3152C40.9966 14.8886 44.5647 11.3205 48.5417 11.3205H48.5789C51.2922 11.3205 54.1913 12.77 54.1913 15.3718C54.1913 16.2267 53.8196 20.8727 53.5223 24.478C55.5293 22.5824 57.2019 19.4975 58.0568 17.0815ZM46.5346 23.4745C47.9099 23.4745 49.7683 22.6196 50.9205 18.4196C51.1063 17.4904 51.2178 16.6727 51.1807 15.7063C50.9577 14.7028 50.1028 14.1081 48.8762 14.1081C46.3488 14.1081 43.9329 16.524 43.9329 20.2037C43.9329 22.4338 44.9736 23.4745 46.5346 23.4745ZM47.947 33.2869H47.9842C48.7647 33.2869 49.6196 32.7665 50.1771 29.4214C48.5417 30.3877 47.0178 31.3541 47.0178 32.5063C47.0178 32.9895 47.3895 33.2869 47.947 33.2869Z" fill="black"/>
<path d="M41.6488 17.0815L41.6117 17.1187C41.8718 16.4125 42.3922 16.1523 42.8382 16.1523C43.4701 16.1523 44.0276 16.6355 44.0276 17.3417C44.0276 17.4904 44.0276 17.6762 43.9533 17.8992C42.6524 21.2444 39.9019 22.9541 37.2258 23.2143C35.9993 25.2957 33.9922 26.8196 31.1302 26.8196C27.0417 26.8196 25.2205 23.586 25.2205 20.055C25.2205 15.7063 27.9709 10.8744 32.5798 10.8744C33.5833 10.8744 34.4382 11.0975 35.1444 11.3948C37.2258 12.1753 38.5639 14.8886 38.5639 17.7877C38.5639 18.7169 38.4895 19.6461 38.2665 20.5382C39.6418 20.055 40.9426 18.9399 41.6488 17.0815ZM33.8807 13.9222V13.8851C33.063 13.8851 32.5798 14.9629 32.5798 16.2638C32.5798 18.1594 33.6205 19.9063 35.2559 20.5382C35.5161 19.7205 35.6276 18.7913 35.6276 17.7134C35.6276 15.632 34.9957 13.9222 33.8807 13.9222ZM31.1674 24.1063C32.2081 24.1063 33.2488 23.6603 34.0665 22.7311C31.6506 21.6532 30.1267 19.1258 30.1267 16.7098C30.1267 15.8921 30.2754 15.0373 30.4984 14.2939C29.0117 15.5205 28.1568 17.9364 28.1568 20.055C28.1568 22.8054 29.4577 24.1063 31.1674 24.1063Z" fill="black"/>
<path d="M27.1095 15.9083C26.5891 15.9083 26.1431 16.1685 25.8457 16.8747C24.8794 19.3278 22.8722 23.4907 20.8279 23.4907C19.5407 23.4907 18.5446 23.1996 17.538 22.9054C16.5101 22.605 15.4713 22.3013 14.1004 22.3013C13.6172 22.3013 12.9482 22.3757 12.3163 22.4872C14.2199 19.8914 14.931 16.7477 15.6201 10.8054C14.3226 10.7228 13.2672 10.4831 12.4979 10.241C11.6763 17.7775 10.7432 20.6511 7.33566 23.4907C6.88964 23.8624 6.66663 24.3828 6.66663 24.9032C6.66663 25.7209 7.37284 26.4271 8.2649 26.4271C8.56225 26.4271 8.89676 26.3156 9.23128 26.1669C11.1269 25.312 12.2791 25.089 13.6915 25.089C14.5897 25.089 15.6645 25.3459 16.8151 25.6208C18.1405 25.9376 19.5666 26.2784 20.9395 26.2784C23.9501 26.2784 25.9201 23.3421 28.113 17.6552C28.2246 17.4694 28.2617 17.2464 28.2617 17.0605C28.2617 16.3543 27.7042 15.9083 27.1095 15.9083Z" fill="black"/>
<path fill-rule="evenodd" clip-rule="evenodd" d="M12.6865 8.70287C13.3596 8.93784 14.4104 9.2114 15.7729 9.29233L15.9959 9.29222C20.196 9.29222 22.9465 6.6904 22.9465 3.56821C22.9465 1.56109 21.3854 0 19.1924 0C16.2561 0 14.2118 2.00712 13.1711 5.98419C11.8701 5.27798 10.9781 4.01424 10.5321 2.41598C10.309 1.63543 9.82586 1.15223 9.15681 1.15223C8.3391 1.15223 7.81873 1.78411 7.81873 2.63899C7.81873 5.16648 9.78869 7.58245 12.6879 8.69752L12.6865 8.70287ZM16.2189 6.57889C16.7764 4.01424 17.6685 2.78767 18.8579 2.78767C19.4898 2.78767 19.8986 3.15936 19.8986 3.8284C19.8986 5.05497 18.5977 6.50455 16.2189 6.57889Z" fill="black"/>
</g>
<defs>
<clipPath id="clip0_18_411">
<rect width="70" height="36" fill="white" transform="translate(6.66663)"/>
</clipPath>
</defs>
</svg>
