<svg width="400" height="459" viewBox="0 0 400 459" fill="none" xmlns="http://www.w3.org/2000/svg">
<path d="M200 459L393.176 347.712C396.894 345.57 399.186 341.605 399.186 337.314V229.5V114.75L200 212V459Z" fill="white"/>
<path d="M200 459L393.176 347.712C396.894 345.57 399.186 341.605 399.186 337.314V229.5V114.75L200 212V459Z" fill="black" fill-opacity="0.2"/>
<path fill-rule="evenodd" clip-rule="evenodd" d="M194.01 3.45094C197.718 1.31487 202.282 1.31487 205.99 3.45093L399.186 114.75L200 212L0.814148 114.75L194.01 3.45094Z" fill="#FA5555"/>
<path fill-rule="evenodd" clip-rule="evenodd" d="M194.01 3.45094C197.718 1.31487 202.282 1.31487 205.99 3.45093L399.186 114.75L200 212L0.814148 114.75L194.01 3.45094Z" fill="black" fill-opacity="0.2"/>
<path d="M0.814148 337.314C0.814148 341.605 3.10562 345.57 6.82395 347.712L200 459V212L0.814148 114.75V337.314Z" fill="#73FA55"/>
<path d="M0.814148 337.314C0.814148 341.605 3.10562 345.57 6.82395 347.712L200 459V212L0.814148 114.75V337.314Z" fill="black" fill-opacity="0.2"/>
<path d="M10.8141 130.761L190 218.246V441.698L11.8158 339.047C11.1961 338.69 10.8141 338.029 10.8141 337.314V130.761ZM200 200.872L22.1129 114.021L199.002 12.1159C199.62 11.7599 200.38 11.7599 200.998 12.1159L377.887 114.021L200 200.872ZM389.186 130.761V229.5V337.314C389.186 338.029 388.804 338.69 388.184 339.047L210 441.698V218.246L389.186 130.761Z" stroke="black" stroke-width="20"/>
<path d="M314 158.197V292.663C314 293.37 313.627 294.024 313.02 294.384L201.02 360.771C200.391 361.143 199.609 361.143 198.98 360.771L86.9802 294.384C86.3726 294.024 86 293.37 86 292.663V159.337C86 158.63 86.3726 157.976 86.9802 157.616L198.98 91.2292C199.609 90.8565 200.391 90.8565 201.02 91.2292L314 158.197Z" fill="black"/>
<path d="M314 158.197V292.663C314 293.37 313.627 294.024 313.02 294.384L201.02 360.771C200.391 361.143 199.609 361.143 198.98 360.771L86.9802 294.384C86.3726 294.024 86 293.37 86 292.663V159.337C86 158.63 86.3726 157.976 86.9802 157.616L198.98 91.2292C199.609 90.8565 200.391 90.8565 201.02 91.2292L314 158.197Z" fill="#78BBEB"/>
<path d="M314 158.197V292.663C314 293.37 313.627 294.024 313.02 294.384L201.02 360.771C200.391 361.143 199.609 361.143 198.98 360.771L86.9802 294.384C86.3726 294.024 86 293.37 86 292.663V159.337C86 158.63 86.3726 157.976 86.9802 157.616L198.98 91.2292C199.609 90.8565 200.391 90.8565 201.02 91.2292L314 158.197Z" stroke="black" stroke-width="20"/>
</svg>
