<svg width="30" height="30" viewBox="0 0 30 30" fill="none" xmlns="http://www.w3.org/2000/svg">
<path d="M7.5 25C8.19444 25 8.78472 24.7569 9.27083 24.2708C9.75694 23.7847 10 23.1944 10 22.5C10 21.8056 9.75694 21.2153 9.27083 20.7292C8.78472 20.2431 8.19444 20 7.5 20C6.80556 20 6.21528 20.2431 5.72917 20.7292C5.24306 21.2153 5 21.8056 5 22.5C5 23.1944 5.24306 23.7847 5.72917 24.2708C6.21528 24.7569 6.80556 25 7.5 25ZM7.5 10C8.19444 10 8.78472 9.75694 9.27083 9.27083C9.75694 8.78472 10 8.19444 10 7.5C10 6.80556 9.75694 6.21528 9.27083 5.72917C8.78472 5.24306 8.19444 5 7.5 5C6.80556 5 6.21528 5.24306 5.72917 5.72917C5.24306 6.21528 5 6.80556 5 7.5C5 8.19444 5.24306 8.78472 5.72917 9.27083C6.21528 9.75694 6.80556 10 7.5 10ZM15 17.5C15.6944 17.5 16.2847 17.2569 16.7708 16.7708C17.2569 16.2847 17.5 15.6944 17.5 15C17.5 14.3056 17.2569 13.7153 16.7708 13.2292C16.2847 12.7431 15.6944 12.5 15 12.5C14.3056 12.5 13.7153 12.7431 13.2292 13.2292C12.7431 13.7153 12.5 14.3056 12.5 15C12.5 15.6944 12.7431 16.2847 13.2292 16.7708C13.7153 17.2569 14.3056 17.5 15 17.5ZM22.5 25C23.1944 25 23.7847 24.7569 24.2708 24.2708C24.7569 23.7847 25 23.1944 25 22.5C25 21.8056 24.7569 21.2153 24.2708 20.7292C23.7847 20.2431 23.1944 20 22.5 20C21.8056 20 21.2153 20.2431 20.7292 20.7292C20.2431 21.2153 20 21.8056 20 22.5C20 23.1944 20.2431 23.7847 20.7292 24.2708C21.2153 24.7569 21.8056 25 22.5 25ZM22.5 10C23.1944 10 23.7847 9.75694 24.2708 9.27083C24.7569 8.78472 25 8.19444 25 7.5C25 6.80556 24.7569 6.21528 24.2708 5.72917C23.7847 5.24306 23.1944 5 22.5 5C21.8056 5 21.2153 5.24306 20.7292 5.72917C20.2431 6.21528 20 6.80556 20 7.5C20 8.19444 20.2431 8.78472 20.7292 9.27083C21.2153 9.75694 21.8056 10 22.5 10ZM3.33333 30C2.41667 30 1.63194 29.6736 0.979167 29.0208C0.326389 28.3681 0 27.5833 0 26.6667V3.33333C0 2.41667 0.326389 1.63194 0.979167 0.979167C1.63194 0.326389 2.41667 0 3.33333 0H26.6667C27.5833 0 28.3681 0.326389 29.0208 0.979167C29.6736 1.63194 30 2.41667 30 3.33333V26.6667C30 27.5833 29.6736 28.3681 29.0208 29.0208C28.3681 29.6736 27.5833 30 26.6667 30H3.33333ZM3.33333 26.6667H26.6667V3.33333H3.33333V26.6667Z" fill="#1C1B1F"/>
</svg>
