<svg width="25" height="23" viewBox="0 0 25 23" fill="none" xmlns="http://www.w3.org/2000/svg">
<path d="M9.43748 22.7083C7.07984 22.7083 5.0564 21.9427 3.36717 20.4114C1.67793 18.8802 0.833313 16.9722 0.833313 14.6875C0.833313 12.4028 1.67793 10.4948 3.36717 8.96352C5.0564 7.43227 7.07984 6.66665 9.43748 6.66665H18.625L14.8333 2.87498L16.875 0.833313L24.1666 8.12498L16.875 15.4166L14.8333 13.375L18.625 9.58331H9.43748C7.90623 9.58331 6.5755 10.0694 5.44529 11.0416C4.31508 12.0139 3.74998 13.2291 3.74998 14.6875C3.74998 16.1458 4.31508 17.3611 5.44529 18.3333C6.5755 19.3055 7.90623 19.7916 9.43748 19.7916H19.7916V22.7083H9.43748Z" fill="#1C1B1F"/>
</svg>
