<svg width="34" height="33" viewBox="0 0 34 33" fill="none" xmlns="http://www.w3.org/2000/svg">
<path d="M3.47708 32.2172C2.56653 32.2172 1.78706 31.9037 1.13864 31.2768C0.490224 30.6498 0.166016 29.8961 0.166016 29.0157V14.6086C0.166016 13.7282 0.490224 12.9745 1.13864 12.3475C1.78706 11.7205 2.56653 11.407 3.47708 11.407H6.78814V3.40311C6.78814 2.52268 7.11234 1.76897 7.76076 1.142C8.40918 0.515025 9.18865 0.201538 10.0992 0.201538H29.9656C30.8761 0.201538 31.6556 0.515025 32.304 1.142C32.9524 1.76897 33.2766 2.52268 33.2766 3.40311V17.8102C33.2766 18.6906 32.9524 19.4443 32.304 20.0713C31.6556 20.6982 30.8761 21.0117 29.9656 21.0117H26.6545V29.0157C26.6545 29.8961 26.3303 30.6498 25.6819 31.2768C25.0335 31.9037 24.254 32.2172 23.3434 32.2172H3.47708ZM3.47708 29.0157H23.3434V17.8102H3.47708V29.0157ZM26.6545 17.8102H29.9656V6.60468H10.0992V11.407H23.3434C24.254 11.407 25.0335 11.7205 25.6819 12.3475C26.3303 12.9745 26.6545 13.7282 26.6545 14.6086V17.8102Z" fill="#ECF1FD"/>
</svg>
