<svg width="23" height="26" viewBox="0 0 23 26" fill="none" xmlns="http://www.w3.org/2000/svg">
<path d="M19.25 25.5C18.2083 25.5 17.3229 25.1354 16.5938 24.4062C15.8646 23.6771 15.5 22.7917 15.5 21.75C15.5 21.625 15.5312 21.3333 15.5938 20.875L6.8125 15.75C6.47917 16.0625 6.09375 16.3073 5.65625 16.4844C5.21875 16.6615 4.75 16.75 4.25 16.75C3.20833 16.75 2.32292 16.3854 1.59375 15.6562C0.864583 14.9271 0.5 14.0417 0.5 13C0.5 11.9583 0.864583 11.0729 1.59375 10.3438C2.32292 9.61458 3.20833 9.25 4.25 9.25C4.75 9.25 5.21875 9.33854 5.65625 9.51562C6.09375 9.69271 6.47917 9.9375 6.8125 10.25L15.5938 5.125C15.5521 4.97917 15.526 4.83854 15.5156 4.70312C15.5052 4.56771 15.5 4.41667 15.5 4.25C15.5 3.20833 15.8646 2.32292 16.5938 1.59375C17.3229 0.864583 18.2083 0.5 19.25 0.5C20.2917 0.5 21.1771 0.864583 21.9062 1.59375C22.6354 2.32292 23 3.20833 23 4.25C23 5.29167 22.6354 6.17708 21.9062 6.90625C21.1771 7.63542 20.2917 8 19.25 8C18.75 8 18.2812 7.91146 17.8438 7.73438C17.4062 7.55729 17.0208 7.3125 16.6875 7L7.90625 12.125C7.94792 12.2708 7.97396 12.4115 7.98438 12.5469C7.99479 12.6823 8 12.8333 8 13C8 13.1667 7.99479 13.3177 7.98438 13.4531C7.97396 13.5885 7.94792 13.7292 7.90625 13.875L16.6875 19C17.0208 18.6875 17.4062 18.4427 17.8438 18.2656C18.2812 18.0885 18.75 18 19.25 18C20.2917 18 21.1771 18.3646 21.9062 19.0938C22.6354 19.8229 23 20.7083 23 21.75C23 22.7917 22.6354 23.6771 21.9062 24.4062C21.1771 25.1354 20.2917 25.5 19.25 25.5ZM19.25 23C19.6042 23 19.901 22.8802 20.1406 22.6406C20.3802 22.401 20.5 22.1042 20.5 21.75C20.5 21.3958 20.3802 21.099 20.1406 20.8594C19.901 20.6198 19.6042 20.5 19.25 20.5C18.8958 20.5 18.599 20.6198 18.3594 20.8594C18.1198 21.099 18 21.3958 18 21.75C18 22.1042 18.1198 22.401 18.3594 22.6406C18.599 22.8802 18.8958 23 19.25 23ZM4.25 14.25C4.60417 14.25 4.90104 14.1302 5.14062 13.8906C5.38021 13.651 5.5 13.3542 5.5 13C5.5 12.6458 5.38021 12.349 5.14062 12.1094C4.90104 11.8698 4.60417 11.75 4.25 11.75C3.89583 11.75 3.59896 11.8698 3.35938 12.1094C3.11979 12.349 3 12.6458 3 13C3 13.3542 3.11979 13.651 3.35938 13.8906C3.59896 14.1302 3.89583 14.25 4.25 14.25ZM19.25 5.5C19.6042 5.5 19.901 5.38021 20.1406 5.14062C20.3802 4.90104 20.5 4.60417 20.5 4.25C20.5 3.89583 20.3802 3.59896 20.1406 3.35938C19.901 3.11979 19.6042 3 19.25 3C18.8958 3 18.599 3.11979 18.3594 3.35938C18.1198 3.59896 18 3.89583 18 4.25C18 4.60417 18.1198 4.90104 18.3594 5.14062C18.599 5.38021 18.8958 5.5 19.25 5.5Z" fill="#1C1B1F"/>
</svg>
