<svg width="25" height="23" viewBox="0 0 25 23" fill="none" xmlns="http://www.w3.org/2000/svg">
<path d="M5.20837 22.7084V19.7917H15.5625C17.0938 19.7917 18.4245 19.3056 19.5547 18.3334C20.6849 17.3612 21.25 16.1459 21.25 14.6875C21.25 13.2292 20.6849 12.0139 19.5547 11.0417C18.4245 10.0695 17.0938 9.58337 15.5625 9.58337H6.37504L10.1667 13.375L8.12504 15.4167L0.833374 8.12504L8.12504 0.833374L10.1667 2.87504L6.37504 6.66671H15.5625C17.9202 6.66671 19.9436 7.43233 21.6329 8.96358C23.3221 10.4948 24.1667 12.4028 24.1667 14.6875C24.1667 16.9723 23.3221 18.8802 21.6329 20.4115C19.9436 21.9428 17.9202 22.7084 15.5625 22.7084H5.20837Z" fill="#1C1B1F"/>
</svg>
