<svg width="29" height="20" viewBox="0 0 29 20" fill="none" xmlns="http://www.w3.org/2000/svg">
<path d="M14.5 15.6667C16.1146 15.6667 17.487 15.1016 18.6172 13.9714C19.7474 12.8412 20.3125 11.4688 20.3125 9.85419C20.3125 8.2396 19.7474 6.86721 18.6172 5.737C17.487 4.60679 16.1146 4.04169 14.5 4.04169C12.8854 4.04169 11.513 4.60679 10.3828 5.737C9.25259 6.86721 8.68749 8.2396 8.68749 9.85419C8.68749 11.4688 9.25259 12.8412 10.3828 13.9714C11.513 15.1016 12.8854 15.6667 14.5 15.6667ZM14.5 13.3417C13.5312 13.3417 12.7078 13.0026 12.0297 12.3245C11.3516 11.6464 11.0125 10.8229 11.0125 9.85419C11.0125 8.88544 11.3516 8.062 12.0297 7.38387C12.7078 6.70575 13.5312 6.36669 14.5 6.36669C15.4687 6.36669 16.2922 6.70575 16.9703 7.38387C17.6484 8.062 17.9875 8.88544 17.9875 9.85419C17.9875 10.8229 17.6484 11.6464 16.9703 12.3245C16.2922 13.0026 15.4687 13.3417 14.5 13.3417ZM14.5 19.5417C11.3569 19.5417 8.49374 18.6644 5.91041 16.9099C3.32707 15.1554 1.45416 12.8035 0.291656 9.85419C1.45416 6.90488 3.32707 4.55297 5.91041 2.79846C8.49374 1.04394 11.3569 0.166687 14.5 0.166687C17.643 0.166687 20.5062 1.04394 23.0896 2.79846C25.6729 4.55297 27.5458 6.90488 28.7083 9.85419C27.5458 12.8035 25.6729 15.1554 23.0896 16.9099C20.5062 18.6644 17.643 19.5417 14.5 19.5417ZM14.5 16.9584C16.9326 16.9584 19.1661 16.3179 21.2005 15.037C23.2349 13.7561 24.7903 12.0285 25.8667 9.85419C24.7903 7.67988 23.2349 5.95228 21.2005 4.67137C19.1661 3.39047 16.9326 2.75002 14.5 2.75002C12.0674 2.75002 9.83384 3.39047 7.79947 4.67137C5.76509 5.95228 4.20971 7.67988 3.13332 9.85419C4.20971 12.0285 5.76509 13.7561 7.79947 15.037C9.83384 16.3179 12.0674 16.9584 14.5 16.9584Z" fill="#1C1B1F"/>
</svg>
